<svg xmlns="http://www.w3.org/2000/svg" width="256" height="256" viewBox="0 0 256 256" role="img" aria-label="24h healing speedup">
  <defs>
    <radialGradient id="field-healing-24h" cx="50%" cy="46%" r="65%">
      <stop offset="0" stop-color="#f5f7ff" stop-opacity="0.32"/>
      <stop offset=".5" stop-color="#0b1a2e" stop-opacity=".96"/>
      <stop offset="1" stop-color="#040914"/>
    </radialGradient>
    <linearGradient id="edge-healing-24h" x1="0" y1="0" x2="1" y2="1">
      <stop stop-color="#f5f7ff" stop-opacity=".92"/>
      <stop offset=".48" stop-color="#29435d" stop-opacity=".48"/>
      <stop offset="1" stop-color="#ff4fd8" stop-opacity=".78"/>
    </linearGradient>
    <filter id="softGlow-healing-24h" x="-40%" y="-40%" width="180%" height="180%">
      <feGaussianBlur stdDeviation="4" result="blur"/>
      <feMerge><feMergeNode in="blur"/><feMergeNode in="SourceGraphic"/></feMerge>
    </filter>
  </defs>
  <path d="M46 14h148l48 48v143l-37 37H51l-37-37V51z" fill="url(#field-healing-24h)" stroke="#1c3046" stroke-width="2"/>
  <path d="M49 25h137l43 43v130l-31 31H58l-31-31V58z" fill="none" stroke="#b8dcf0" stroke-opacity=".08"/>
  <path d="M27 82V57l30-30h50M149 27h35l45 45v33M229 155v42l-31 31h-48M107 228H58l-31-31v-24" fill="none" stroke="url(#edge-healing-24h)" stroke-width="3"/>
  <path d="M36 46h30M46 36v30M220 190v19l-11 11h-19" fill="none" stroke="#f5f7ff" stroke-width="2" stroke-opacity=".58"/>
  <circle cx="112" cy="131" r="62" fill="none" stroke="#f5f7ff" stroke-opacity=".09"/>
  <circle cx="112" cy="131" r="49" fill="none" stroke="#f5f7ff" stroke-width="2" stroke-dasharray="2 9" stroke-opacity=".22"/>
  <path d="M112 70v13M112 179v13M52 131h13" stroke="#f5f7ff" stroke-width="2" stroke-opacity=".38"/>
  <text x="105" y="151" text-anchor="middle" fill="#e8f8ff" font-family="Chakra Petch, IBM Plex Mono, ui-monospace, monospace" font-size="52" font-weight="600" letter-spacing="-3">24h</text>
  <g fill="none" stroke="#ff4fd8" stroke-width="8" stroke-linecap="square" stroke-linejoin="miter" opacity=".88" filter="url(#softGlow-healing-24h)">
    <path d="m153 107 22 24-22 24"/><path d="m176 107 22 24-22 24"/>
  </g>
  <rect x="75" y="208" width="11" height="3" rx="1.5" fill="#f5f7ff" opacity="0.95"/><rect x="93" y="208" width="11" height="3" rx="1.5" fill="#f5f7ff" opacity="0.95"/><rect x="111" y="208" width="11" height="3" rx="1.5" fill="#f5f7ff" opacity="0.95"/><rect x="129" y="208" width="11" height="3" rx="1.5" fill="#f5f7ff" opacity="0.95"/><rect x="147" y="208" width="11" height="3" rx="1.5" fill="#f5f7ff" opacity="0.95"/><rect x="165" y="208" width="11" height="3" rx="1.5" fill="#ff4fd8" opacity="0.95"/>

    <circle cx="200" cy="54" r="24" fill="#43f2a1" opacity=".055" filter="url(#softGlow-healing-24h)"/>
    <g transform="translate(117 -8)" fill="none" stroke="#43f2a1" stroke-width="4" stroke-linecap="round" stroke-linejoin="round" filter="url(#softGlow-healing-24h)"><path d="M69 63h8l4-9 5 17 4-8h8"/></g>
  <path d="M27 82V57l30-30h50" fill="none" stroke="#ff4fd8" stroke-width="3"/><circle cx="42" cy="200" r="6" fill="#050a13" stroke="#ff4fd8"/><path d="M42 188v5M42 207v5M30 200h5M49 200h5" stroke="#ff4fd8" stroke-width="2" filter="url(#softGlow-healing-24h)"/>
</svg>